<!DOCTYPE svg PUBLIC "-//W3C//DTD SVG 1.1//EN" "http://www.w3.org/Graphics/SVG/1.1/DTD/svg11.dtd"><svg xmlns="http://www.w3.org/2000/svg" xmlns:xlink="http://www.w3.org/1999/xlink"><symbol viewBox="0 0 1000 1000" id="facebook"><path d="M381.6 999.5V530.1H257.5v-169h124.1V216.8C381.6 103.4 454.9-.8 623.8-.8c68.4 0 119 6.6 119 6.6l-4 157.8s-51.6-.5-107.9-.5c-60.9 0-70.7 28.1-70.7 74.7v123.4h183.4l-8 169H560.2v469.3H381.6z"/></symbol><symbol viewBox="0 0 1000 1000" id="googleplus"><path d="M997.8 247.7H823.6V81.1h-37.9v166.6H619.1v45.4h166.6v166.7h37.9V293.1h174.2M432.6 564.3c-23.5-16.6-68.4-57.1-68.4-80.9 0-27.9 8-41.6 49.9-74.4 43-33.6 73.4-79.1 73.4-134.1 0-65.4-29.1-133.3-83.8-148.5h82.4L544.3 81h-260C167.7 81.1 58 169.4 58 271.7c0 104.5 79.5 188.9 198 188.9 8.2 0 16.3-.2 24.1-.7-7.7 14.7-13.2 31.3-13.2 48.6 0 29 15.6 52.6 35.4 71.8-14.9 0-29.3.4-45.1.4-144.4 0-255.5 92-255.5 187.3 0 93.9 121.8 152.7 266.2 152.7 164.6 0 255.5-93.4 255.5-187.3.1-75.4-22.1-120.5-90.8-169.1zM293.7 434c-67-2-130.7-74.9-142.2-162.9-11.6-88 33.3-155.3 100.3-153.3S382.4 190.4 394 278.4c11.6 88-33.4 157.7-100.3 155.6zm-26.3 445.1c-99.8 0-171.9-63.2-171.9-139.1 0-74.4 89.4-136.3 189.2-135.2 23.3.2 45 4 64.7 10.4 54.2 37.7 93 59 104 101.9 2.1 8.7 3.2 17.7 3.2 26.8 0 75.9-48.9 135.2-189.2 135.2z"/></symbol><symbol viewBox="0 0 100 100" id="instagram"><path d="M25 36.3c4.7-8.9 14-15 24.7-15s20.1 6.1 24.7 15h19.2v-15c0-8.3-6.7-15-15-15H29.5v19.1h-2V6.3h-.7v19.1h-2V6.3h-.7v19.1h-2V6.3h-.7v19.1h-2v-19c-7.3 1-13 7.3-13 14.9v15H25zm46.2-20.6c0-1.8 1.4-3.2 3.2-3.2h7.2c1.8 0 3.2 1.4 3.2 3.2v7.2c0 1.8-1.4 3.2-3.2 3.2h-7.2c-1.8 0-3.2-1.4-3.2-3.2v-7.2zM76.3 40.4c.9 2.8 1.5 5.8 1.5 8.9 0 15.4-12.5 27.9-27.9 27.9S22 64.7 22 49.2c0-3.1.5-6.1 1.5-8.9h-17v38.2c0 8.3 6.7 15 15 15h57.4c8.3 0 15-6.7 15-15V40.4H76.3z"/><circle cx="49.8" cy="49.3" r="18.6"/></symbol><symbol viewBox="0 0 1000 1000" id="twitter"><path d="M999.8 189.9c-36.8 16.3-76.3 27.3-117.7 32.3 42.3-25.4 74.8-65.5 90.1-113.4-39.6 23.5-83.5 40.6-130.2 49.7-37.4-39.8-90.7-64.7-149.6-64.7-113.2 0-205 91.8-205 205 0 16.1 1.8 31.7 5.3 46.7-170.4-8.5-321.4-90.1-422.5-214.2-17.6 30.3-27.8 65.5-27.8 103.1 0 71.1 36.2 133.9 91.2 170.6-33.6-1.1-65.2-10.3-92.8-25.6v2.6c0 99.3 70.7 182.2 164.4 201-17.2 4.7-35.3 7.2-54 7.2-13.2 0-26.1-1.3-38.6-3.7 26.1 81.4 101.8 140.7 191.5 142.4-70.2 55-158.5 87.8-254.6 87.8-16.5 0-32.9-1-48.9-2.9 90.7 58.2 198.5 92.1 314.2 92.1 377.1 0 583.2-312.4 583.2-583.3 0-8.9-.2-17.7-.6-26.5 40.2-28.9 74.9-65 102.4-106.2z"/></symbol></svg>