<?xml version="1.0" encoding="utf-8"?>
<!-- Generator: Adobe Illustrator 17.1.0, SVG Export Plug-In . SVG Version: 6.00 Build 0)  -->
<!DOCTYPE svg PUBLIC "-//W3C//DTD SVG 1.1//EN" "http://www.w3.org/Graphics/SVG/1.1/DTD/svg11.dtd">
<svg version="1.1" id="Layer_1" xmlns="http://www.w3.org/2000/svg" xmlns:xlink="http://www.w3.org/1999/xlink" x="0px" y="0px"
	 viewBox="0 0 1000 1000" enable-background="new 0 0 1000 1000" xml:space="preserve">
<g>
	<polygon id="Plus" points="997.8,247.7 823.6,247.7 823.6,81.1 785.7,81.1 785.7,247.7 619.1,247.7 619.1,293.1 
		785.7,293.1 785.7,459.8 823.6,459.8 823.6,293.1 997.8,293.1 	"/>
	<path id="g" d="M432.6,564.3c-23.5-16.6-68.4-57.1-68.4-80.9c0-27.9,8-41.6,49.9-74.4c43-33.6,73.4-79.1,73.4-134.1
		c0-65.4-29.1-133.3-83.8-148.5h82.4l58.2-45.4c0,0-195,0-260,0C167.7,81.1,58,169.4,58,271.7c0,104.5,79.5,188.9,198,188.9
		c8.2,0,16.3-0.2,24.1-0.7c-7.7,14.7-13.2,31.3-13.2,48.6c0,29,15.6,52.6,35.4,71.8c-14.9,0-29.3,0.4-45.1,0.4
		c-144.4,0-255.5,92-255.5,187.3c0,93.9,121.8,152.7,266.2,152.7c164.6,0,255.5-93.4,255.5-187.3C523.5,658,501.3,612.9,432.6,564.3
		z M293.7,434c-67-2-130.7-74.9-142.2-162.9c-11.6-88,33.3-155.3,100.3-153.3c67,2,130.6,72.6,142.2,160.6
		C405.6,366.4,360.6,436.1,293.7,434z M267.4,879.1c-99.8,0-171.9-63.2-171.9-139.1c0-74.4,89.4-136.3,189.2-135.2
		c23.3,0.2,45,4,64.7,10.4c54.2,37.7,93,59,104,101.9c2.1,8.7,3.2,17.7,3.2,26.8C456.6,819.8,407.7,879.1,267.4,879.1z"/>
</g>
</svg>
