<svg xmlns="http://www.w3.org/2000/svg" xmlns:xlink="http://www.w3.org/1999/xlink" viewBox="0 0 1000 1000"><defs><path id="a" d="M34.3 36.5h928.2v928.2H34.3z"/></defs><clipPath id="b"><use xlink:href="#a" overflow="visible"/></clipPath><path clip-path="url(#b)" d="M498.4 964.7c256.3 0 464.1-207.8 464.1-464.1S754.7 36.4 498.4 36.4C242 36.5 34.3 244.3 34.3 500.7c0 256.2 207.7 464 464.1 464"/><path fill="#FFF" d="M831.8 359.5h-107v-105H698v105H591v26.2h107v105h26.8v-105h107"/><path fill="#FFF" d="M698 248v105H591v26.2h107v104.9h26.8V379.2h107V353h-107V248"/><g><defs><path id="c" d="M34.3 36.5h928.2v928.2H34.3z"/></defs><clipPath id="d"><use xlink:href="#c" overflow="visible"/></clipPath><path clip-path="url(#d)" fill="#FFF" d="M368.8 752.4c-63.5 0-109.3-39.4-109.3-86.7 0-46.4 56.9-85 120.4-84.4 14.8.2 28.6 2.5 41.1 6.5 34.5 23.5 59.2 36.8 66.2 63.6 1.3 5.4 2 11 2 16.7-.1 47.4-31.2 84.3-120.4 84.3m16.7-277.6c-42.6-1.2-83.1-46.8-90.5-101.6-7.3-54.9 21.2-96.9 63.8-95.7 42.6 1.3 83.1 45.3 90.5 100.2 7.3 54.9-21.3 98.3-63.8 97.1m88.3 81.3c-14.9-10.4-43.5-35.6-43.5-50.4 0-17.4 5.1-26 31.8-46.4 27.3-21 46.7-50.4 46.7-84.7 0-40.8-18.5-80.6-53.3-93.7h52.4l37-26.2H379.5c-74.2 0-143.9 55.1-143.9 118.9 0 65.2 50.6 117.8 126 117.8 5.3 0 10.3-.1 15.3-.4-4.9 9.2-8.4 19.6-8.4 30.3 0 18.1 9.9 32.8 22.5 44.8-9.5 0-18.7.3-28.7.3-91.8 0-162.5 57.4-162.5 116.9 0 58.6 77.5 95.2 169.3 95.2 104.7 0 162.5-58.3 162.5-116.9 0-47.1-14.1-75.3-57.8-105.5"/><path clip-path="url(#d)" fill="#FFF" d="M379.5 248c-74.1 0-143.9 55.1-143.9 118.9 0 65.2 50.5 117.8 126 117.8 5.3 0 10.3-.1 15.3-.4-4.9 9.2-8.4 19.5-8.4 30.3 0 18.1 9.9 32.8 22.5 44.8-9.5 0-18.6.3-28.7.3-91.8 0-162.5 57.4-162.5 116.9 0 58.6 77.5 95.3 169.3 95.3 104.7 0 162.5-58.3 162.5-116.9 0-47-14.1-75.1-57.8-105.4-15-10.4-43.5-35.6-43.5-50.5 0-17.4 5.1-25.9 31.8-46.4 27.3-21 46.7-50.4 46.7-84.7 0-40.8-18.5-80.6-53.3-93.7h52.4l37-26.2H379.5zm6 220.2c-42.6-1.3-83.1-46.8-90.5-101.6-7.4-54.9 21.2-96.9 63.8-95.7 42.6 1.2 83.1 45.3 90.5 100.2 7.3 54.1-20.4 97.1-62 97.1h-1.8m-126 190.9c0-46.4 56.8-85 120.3-84.4 14.8.1 28.6 2.5 41.2 6.4 34.5 23.5 59.2 36.8 66.1 63.6 1.3 5.4 2 11 2 16.7 0 47.3-31.1 84.3-120.3 84.3-63.5.2-109.3-39.2-109.3-86.6"/></g></svg>