<?xml version="1.0" encoding="utf-8"?>
<!-- Generator: Adobe Illustrator 18.0.0, SVG Export Plug-In . SVG Version: 6.00 Build 0)  -->
<!DOCTYPE svg PUBLIC "-//W3C//DTD SVG 1.1//EN" "http://www.w3.org/Graphics/SVG/1.1/DTD/svg11.dtd">
<svg version="1.1" id="Calque_1" xmlns="http://www.w3.org/2000/svg" xmlns:xlink="http://www.w3.org/1999/xlink" x="0px" y="0px"
	 viewBox="0 0 100 100" enable-background="new 0 0 100 100" xml:space="preserve">
<g>
	<path d="M25,36.3c4.7-8.9,14-15,24.7-15s20.1,6.1,24.7,15h19.2v-15c0-8.3-6.7-15-15-15H29.5v19.1h-2V6.3h-0.7v19.1h-2V6.3h-0.7
		v19.1h-2V6.3h-0.7v19.1h-2v-19c-7.3,1-13,7.3-13,14.9v15H25z M71.2,15.7c0-1.8,1.4-3.2,3.2-3.2h7.2c1.8,0,3.2,1.4,3.2,3.2v7.2
		c0,1.8-1.4,3.2-3.2,3.2h-7.2c-1.8,0-3.2-1.4-3.2-3.2V15.7z"/>
	<path d="M76.3,40.4c0.9,2.8,1.5,5.8,1.5,8.9c0,15.4-12.5,27.9-27.9,27.9s-27.9-12.5-27.9-28c0-3.1,0.5-6.1,1.5-8.9h-17v38.2
		c0,8.3,6.7,15,15,15h57.4c8.3,0,15-6.7,15-15V40.4H76.3z"/>
	<circle cx="49.8" cy="49.3" r="18.6"/>
</g>
</svg>
