<svg xmlns="http://www.w3.org/2000/svg" xmlns:xlink="http://www.w3.org/1999/xlink" viewBox="0 0 1000 1000"><defs><path id="a" d="M36.4 33.5h931.1v931.1H36.4z"/></defs><clipPath id="b"><use xlink:href="#a" overflow="visible"/></clipPath><path clip-path="url(#b)" d="M502 964.6c257.1 0 465.5-208.5 465.5-465.5 0-257.2-208.4-465.6-465.5-465.6C244.8 33.5 36.4 242 36.4 499.1S244.8 964.6 502 964.6"/><path clip-path="url(#b)" fill="#FFF" d="M502.5 402.7c-60.2 0-108.9 47.3-108.9 105.6 0 58.4 48.8 105.6 108.9 105.6 60.2 0 109-47.3 109-105.6-.1-58.3-48.8-105.6-109-105.6m209.4 64.9h-47.8c4.5 14.8 7 30.3 7 46.5 0 90.3-75.5 163.4-168.7 163.4-93.1 0-168.6-73.2-168.6-163.4 0-16.2 2.4-31.8 7-46.5H291v229.2c0 11.9 9.7 21.6 21.6 21.6h377.9c11.8 0 21.5-9.7 21.5-21.6V467.6zm-86-169.2c-13.4 0-24.4 11-24.4 24.4v58.5c0 13.4 11 24.4 24.4 24.4h61.3c13.5 0 24.5-11 24.5-24.4v-58.5c0-13.4-11-24.4-24.5-24.4h-61.3zm-325.6-60.3h403.4c38.3 0 69.6 31.3 69.6 69.6v403.4c0 38.3-31.4 69.7-69.6 69.7H300.3c-38.3 0-69.6-31.4-69.6-69.7V307.8c-.1-38.3 31.3-69.7 69.6-69.7"/></svg>