<svg xmlns="http://www.w3.org/2000/svg" xmlns:xlink="http://www.w3.org/1999/xlink" viewBox="0 0 1000 1000"><defs><path id="a" d="M30.7 30.2h940.1v940.2H30.7z"/></defs><clipPath id="b"><use xlink:href="#a" overflow="visible"/></clipPath><path clip-path="url(#b)" d="M500.7 970.4c259.6 0 470-210.5 470-470 0-259.6-210.4-470.1-470-470.1S30.6 240.8 30.6 500.4c.1 259.5 210.5 470 470.1 470"/><path clip-path="url(#b)" fill="#FFF" d="M827.3 327.4c-22.8 10.2-47.5 17-73.2 20.1 26.3-15.8 46.5-40.8 56.1-70.5-24.6 14.6-51.9 25.1-81 30.9-23.2-24.8-56.4-40.2-93.1-40.2-70.4 0-127.5 57-127.5 127.5 0 10.1 1.1 19.7 3.3 29-106.1-5.3-200-56.1-262.9-133.2-11 18.8-17.3 40.7-17.3 64.2 0 44.2 22.5 83.3 56.8 106.2-20.9-.7-40.6-6.4-57.7-16-.1.5-.1 1.1-.1 1.6 0 61.8 44 113.3 102.4 125.1-10.7 2.9-22 4.5-33.6 4.5-8.2 0-16.2-.8-24-2.3 16.2 50.6 63.3 87.5 119.1 88.5C351 697 296 717.4 236.3 717.4c-10.3 0-20.5-.6-30.4-1.8 56.4 36.2 123.4 57.4 195.4 57.4 234.6 0 362.9-194.4 362.9-362.9 0-5.5-.1-11-.4-16.5 24.8-18.1 46.3-40.6 63.5-66.2"/></svg>