<?xml version="1.0" encoding="utf-8"?>
<!-- Generator: Adobe Illustrator 17.1.0, SVG Export Plug-In . SVG Version: 6.00 Build 0)  -->
<!DOCTYPE svg PUBLIC "-//W3C//DTD SVG 1.1//EN" "http://www.w3.org/Graphics/SVG/1.1/DTD/svg11.dtd">
<svg version="1.1" id="Layer_1" xmlns="http://www.w3.org/2000/svg" xmlns:xlink="http://www.w3.org/1999/xlink" x="0px" y="0px"
	 viewBox="0 0 1000 1000" enable-background="new 0 0 1000 1000" xml:space="preserve">
<path d="M999.8,189.9c-36.8,16.3-76.3,27.3-117.7,32.3c42.3-25.4,74.8-65.5,90.1-113.4
	c-39.6,23.5-83.5,40.6-130.2,49.7c-37.4-39.8-90.7-64.7-149.6-64.7c-113.2,0-205,91.8-205,205c0,16.1,1.8,31.7,5.3,46.7
	C322.3,337,171.3,255.4,70.2,131.3c-17.6,30.3-27.8,65.5-27.8,103.1c0,71.1,36.2,133.9,91.2,170.6c-33.6-1.1-65.2-10.3-92.8-25.6
	c0,0.9,0,1.7,0,2.6c0,99.3,70.7,182.2,164.4,201c-17.2,4.7-35.3,7.2-54,7.2c-13.2,0-26.1-1.3-38.6-3.7
	c26.1,81.4,101.8,140.7,191.5,142.4c-70.2,55-158.5,87.8-254.6,87.8c-16.5,0-32.9-1-48.9-2.9c90.7,58.2,198.5,92.1,314.2,92.1
	c377.1,0,583.2-312.4,583.2-583.3c0-8.9-0.2-17.7-0.6-26.5C937.6,267.2,972.3,231.1,999.8,189.9z"/>
</svg>
